<svg xmlns="http://www.w3.org/2000/svg" width="187.544" height="189.537" viewBox="0 0 187.544 189.537">
  <g id="Group_232" data-name="Group 232" transform="translate(-109.221 -232.612)">
    <path id="Path_364" data-name="Path 364" d="M142.337-30.635C190.076-37.409,223.214-59.107,223.3-11.6s.254,43.807,0,137.089c-1.036,27.032-44.246,23.954-66.967,19.95C101.254,135.729,35.891,68.371,35.891,32.91,35.891-17.176,94.6-23.86,142.337-30.635Z" transform="translate(73.33 274.097)" fill="rgba(255,176,0,0.19)"/>
    <g id="Asset_1PIC" data-name="Asset 1PIC" transform="translate(135.249 243.123)">
      <g id="Layer_2" data-name="Layer 2" transform="translate(0)">
        <g id="OBJECTS">
          <ellipse id="Ellipse_27" data-name="Ellipse 27" cx="69.964" cy="6.787" rx="69.964" ry="6.787" transform="translate(0 119.543)" fill="#ffb000"/>
          <path id="Path_280" data-name="Path 280" d="M187.685,92.876h0c-.127,15.082-.572,27.532-1.635,30.529-3.12,8.8-8.624,17.4-14.129,17.6S76.5,141,76.5,141s20.372-18.574,20.186-36.951c-.048-4.874-.238-12.764-.492-21.722C95.491,57.509,94.3,24.46,94.3,24.46h92.67S187.931,63.653,187.685,92.876Z" transform="translate(-46.138 -14.752)" fill="#f04d4d"/>
          <path id="Path_281" data-name="Path 281" d="M187.685,106.066h0c-.127,15.082-.572,27.532-1.635,30.529-3.12,8.8-8.624,17.4-14.129,17.6s-95.421,0-95.421,0,20.372-18.574,20.186-36.95c-.048-4.874-.238-12.764-.492-21.722l.052-.036s9.319-51.818,46.793-49.048S187.685,106.066,187.685,106.066Z" transform="translate(-46.138 -27.942)" fill="#ff7373"/>
          <rect id="Rectangle_401" data-name="Rectangle 401" width="11.061" height="22.329" transform="translate(104.954 51.413)" fill="#6478ff"/>
          <rect id="Rectangle_402" data-name="Rectangle 402" width="11.061" height="22.329" transform="translate(104.954 51.413)" fill="#f04d4d" opacity="0.72"/>
          <rect id="Rectangle_403" data-name="Rectangle 403" width="2.183" height="35.676" transform="translate(105.593 119.258) rotate(180)" fill="#042956"/>
          <path id="Path_282" data-name="Path 282" d="M255.913,293.84H242.9a2.635,2.635,0,0,0-2.635,2.635h18.289A2.635,2.635,0,0,0,255.913,293.84Z" transform="translate(-144.903 -177.218)" fill="#042956"/>
          <path id="Path_283" data-name="Path 283" d="M239.351,265.032H255.66a.861.861,0,0,0,.861-.861h0a.861.861,0,0,0-.861-.861H239.351a.861.861,0,0,0-.861.861h0A.861.861,0,0,0,239.351,265.032Z" transform="translate(-143.835 -158.805)" fill="#042956"/>
          <path id="Path_284" data-name="Path 284" d="M237.341,136.87l-3.251,5.271,3.251,3.453,3.143-4.81Z" transform="translate(-141.182 -82.548)" fill="#f3cdb0"/>
          <path id="Path_285" data-name="Path 285" d="M240.78,139.28l2.393,5.009,1.345-2.052Z" transform="translate(-145.216 -84.001)" fill="#f272a6"/>
          <path id="Path_286" data-name="Path 286" d="M244.009,121.81s-.663.131-2.211,3.405l-1.548,3.278,2.743,3.207.532-5.41,1.278-3.85Z" transform="translate(-144.897 -73.465)" fill="#fff"/>
          <path id="Path_287" data-name="Path 287" d="M174.984,236.482c.194.683,7.938,2.25,8.4,1.679a7.7,7.7,0,0,0,.575-1.08c.29-.611.627-1.377.925-2.064.425-.984.766-1.81.766-1.81l-2.413-1.357a3.492,3.492,0,0,1-1.107,1.25,7.019,7.019,0,0,1-2.937,1.4,7.744,7.744,0,0,0-1.469.353C176.377,235.283,174.829,236.009,174.984,236.482Z" transform="translate(-105.528 -139.831)" fill="#f3cdb0"/>
          <path id="Path_288" data-name="Path 288" d="M174.984,241.041c.194.683,7.938,2.25,8.4,1.679a7.7,7.7,0,0,0,.575-1.08l-6.2-.869a2.109,2.109,0,0,0-.044-1.361C176.377,239.843,174.829,240.569,174.984,241.041Z" transform="translate(-105.528 -144.39)" fill="#fff"/>
          <path id="Path_289" data-name="Path 289" d="M187.488,237.4c-.052,0,1.925,2.826,3.838,3.108l-2.913-3.5Z" transform="translate(-113.075 -142.937)" fill="#ff72a6"/>
          <path id="Path_290" data-name="Path 290" d="M229.927,258.435c.655.274,6.715-4.806,6.553-5.517a7.7,7.7,0,0,0-.484-1.123c-.3-.607-.683-1.349-1.036-2.008-.5-.945-.937-1.726-.937-1.726l-2.564,1.036a3.5,3.5,0,0,1,.286,1.635,6.886,6.886,0,0,1-.734,3.175,7.743,7.743,0,0,0-.639,1.369C229.876,256.581,229.471,258.244,229.927,258.435Z" transform="translate(-138.551 -149.607)" fill="#f3cdb0"/>
          <path id="Path_291" data-name="Path 291" d="M229.927,264.11c.655.274,6.715-4.806,6.553-5.517A7.7,7.7,0,0,0,236,257.47l-4.54,4.29c-.075-.274-.572-.572-1.091-.814C229.875,262.257,229.471,263.919,229.927,264.11Z" transform="translate(-138.551 -155.283)" fill="#fff"/>
          <path id="Path_292" data-name="Path 292" d="M234.376,250.731a3.841,3.841,0,0,0,1.869-.333,5.93,5.93,0,0,1,1.345-.611c-.5-.945-.937-1.727-.937-1.727L234.09,249.1A3.5,3.5,0,0,1,234.376,250.731Z" transform="translate(-141.182 -149.607)" fill="#f272a6"/>
          <path id="Path_293" data-name="Path 293" d="M223.877,177.907s1.746,6.787-.714,8.12-15.84-.6-15.574,1.8,4.858,16.237,5.922,17.169c0,0-3.461-.464-5.39.794s-5.457.6-8.12-.464-2.862-1.73-5.656-1.588a7.439,7.439,0,0,1-6.854-4.993s6.116-18.368,8.116-20.829,3.195-2.548,7.541-3a24.842,24.842,0,0,1,8.97,1.068Z" transform="translate(-113.077 -105.439)" fill="#042956"/>
          <path id="Path_294" data-name="Path 294" d="M247.871,149.092l.556,8.763.877-9.549-1.584-3.516Z" transform="translate(-149.402 -87.324)" fill="#ea5003"/>
          <path id="Path_295" data-name="Path 295" d="M248.083,141.243a28,28,0,0,0,0-6.688c-.437-3.826-1.746-13.034-.194-14.875s4.04-2.231,5.338-2.421,6,1.588,6.533,2.421,2.278,2.131,1.794,7.85-1.695,15.649-1.695,15.649S252.3,144.247,248.083,141.243Z" transform="translate(-149.059 -70.711)" fill="#fff"/>
          <path id="Path_296" data-name="Path 296" d="M250.365,136.066c-.083-.623.564-1.06.925-1.588a.746.746,0,0,0,.167-.591.4.4,0,0,0-.222-.27c-.234-.091-.437.119-.472.337a1.3,1.3,0,0,0,.067.548,9.215,9.215,0,0,1,.194,3.727.746.746,0,0,1-.21.488.3.3,0,0,1-.3.06c-.214-.087-.194-.373-.131-.583a4.481,4.481,0,0,1,1.719-2.361,1.246,1.246,0,0,0-.607,1.437.659.659,0,0,0,.19.3.52.52,0,0,0,.826-.278,1.711,1.711,0,0,0,.064-.73.7.7,0,0,0-.179-.524.258.258,0,0,0-.349,0c-.143.143,0,.4.115.524s.333.29.508.131a.322.322,0,0,0,.091-.159,3.8,3.8,0,0,0,.111-1.072,1.06,1.06,0,0,0,.167.968.266.266,0,0,0,.151.1c.175.036.274-.159.31-.318a2.6,2.6,0,0,0,.048-.869.46.46,0,0,0,.6.341.671.671,0,0,0,.4-.623.926.926,0,0,0-.02-.21.151.151,0,0,0-.3.044,1.715,1.715,0,0,0,.4.98.667.667,0,0,0,.333.234.556.556,0,0,0,.536-.218,1.452,1.452,0,0,0,.238-.556" transform="translate(-150.983 -80.572)" fill="none" stroke="#001a49" stroke-linecap="round" stroke-linejoin="round" stroke-width="0.65"/>
          <path id="Path_297" data-name="Path 297" d="M255.131,131.422s1.29-1.631.706-1.631-.706.667-.706.667-.488-1.155-.925-.794S254.778,131.283,255.131,131.422Z" transform="translate(-153.249 -78.159)" fill="#e73100"/>
          <path id="Path_298" data-name="Path 298" d="M254.65,147.144s.282-1.274-.048-1.115-.218.568-.218.568-.591-.52-.738-.195S254.412,147.164,254.65,147.144Z" transform="translate(-152.966 -88.063)" fill="#e73100"/>
          <path id="Path_299" data-name="Path 299" d="M269.739,78.975l1.54,6.191a19.977,19.977,0,0,0,.056,3.941,8.667,8.667,0,0,0,.163.873,6.593,6.593,0,0,0,1.417,2.925c1.369-.425,2.358-6.088,2.123-7.331s.663-3.334.794-5.6-2.219-4.624-4.06-4.576a2.837,2.837,0,0,0-2.461,1.893Z" transform="translate(-162.423 -45.473)" fill="#001a49"/>
          <path id="Path_300" data-name="Path 300" d="M267.98,80.765l.536-.6,1.465,1.04-.552.714Z" transform="translate(-161.621 -48.351)" fill="#ff5d00"/>
          <path id="Path_301" data-name="Path 301" d="M271.912,89.62a19.98,19.98,0,0,0,.056,3.941c2.044-.456,1.532-7.053,1.246-8.66a2.874,2.874,0,0,0-1.806-2.111,1.191,1.191,0,0,0-1.048.643Z" transform="translate(-163.056 -49.931)" fill="#042956" opacity="0.37"/>
          <path id="Path_302" data-name="Path 302" d="M256.319,91.727l-.254,4.83a4.889,4.889,0,0,1-2.957.865c-1.4-.214-1.659-.722-1.659-.722V93.953s-2.631.722-3.354-1.552a16.617,16.617,0,0,1,.183-8.172c.611-1.389,3.318-2.778,4.723-2.81s4.326,2.127,4.326,2.127l.9,2.957-.254,3.639Z" transform="translate(-149.372 -49.105)" fill="#f3cdb0"/>
          <path id="Path_303" data-name="Path 303" d="M248.157,84.989s.091-1.417,2.123-1.552,2.778.6,3.06,1.433a10.01,10.01,0,0,0,1.024,2.088,2.916,2.916,0,0,0,.19.258c.194.238.373.373.5.314a.718.718,0,0,0,.294-.314c.048-.083.1-.171.155-.258a.941.941,0,0,1,1.1-.433,1.5,1.5,0,0,1-.671,2.905s.286,2.211.6,2.322,1.945-.4,2.639-2.635.337-6.013-1.655-7.489-5.342-2.215-7.62-.4S248.157,84.989,248.157,84.989Z" transform="translate(-149.632 -48.344)" fill="#001a49"/>
          <path id="Path_304" data-name="Path 304" d="M250.58,105.348a1.024,1.024,0,0,0,.5-.218c.218-.187.742-.032.929.107a.742.742,0,0,0,.464.107,1.441,1.441,0,0,1-.945.5A1.8,1.8,0,0,1,250.58,105.348Z" transform="translate(-151.127 -63.353)" fill="#e73100"/>
          <ellipse id="Ellipse_28" data-name="Ellipse 28" cx="1.115" cy="1.115" rx="1.115" ry="1.115" transform="translate(100.66 37.871)" fill="#001a49" stroke="#e73100" stroke-miterlimit="10" stroke-width="0.65"/>
          <ellipse id="Ellipse_29" data-name="Ellipse 29" cx="1.012" cy="1.012" rx="1.012" ry="1.012" transform="translate(97.29 37.974)" fill="#001a49" stroke="#e73100" stroke-miterlimit="10" stroke-width="0.59"/>
          <path id="Path_305" data-name="Path 305" d="M250.19,97.186s.536-.631,1.373.127" transform="translate(-150.892 -58.465)" fill="none" stroke="#e73100" stroke-miterlimit="10" stroke-width="0.65"/>
          <path id="Path_306" data-name="Path 306" d="M259,97.28v.258h2.921c.048-.083.1-.171.155-.258Z" transform="translate(-156.205 -58.67)" fill="#e73100"/>
          <path id="Path_307" data-name="Path 307" d="M257.2,112.214a5.915,5.915,0,0,0,1.5-.484c.349-.254-.714,1.048-1.5,1.238Z" transform="translate(-155.12 -67.366)" fill="#f272a6"/>
          <path id="Path_308" data-name="Path 308" d="M268.157,119.65a17.641,17.641,0,0,0-2.9,7.882,64.5,64.5,0,0,0,0,14.018c.532,4.794.353,13.3.353,13.3l7.668-1.437s-1.437-8.569-1.258-10.545,3.866-18.36-.968-21.912Z" transform="translate(-159.75 -72.162)" fill="#ff5d00"/>
          <path id="Path_309" data-name="Path 309" d="M249.944,118.972s-3.572,7.239-2.87,14.53c0,0-1.4-9.347-.167-12.133S249.944,118.972,249.944,118.972Z" transform="translate(-148.605 -71.742)" fill="#ff5d00"/>
          <path id="Path_310" data-name="Path 310" d="M219.44,140.92s.036-.306,1.631-.52l.5.619-.655.81-1.294-.452Z" transform="translate(-132.346 -84.677)" fill="#032042"/>
          <path id="Path_311" data-name="Path 311" d="M213.23,126.89c.536,1.326,2.127,1.536,2.961,1.861h0a1.5,1.5,0,0,1,.329.171c.262.194.306.679.21,1.349a25.513,25.513,0,0,1-.909,3.509c-.695,2.274.695,7.188.695,7.188s0,1.381-.067,2.338a2.259,2.259,0,0,1-.151.889c-.218.183-1.588,1.064-1.393,1.588s2.274.294,2.274.294c.623.623,2.862.258,4.437.183a4.64,4.64,0,0,0,2.6-.953c-.841,1.945-4.4,4.62-4.4,4.62,2.278-.218,5.644-3.175,6.632-5.219a2.159,2.159,0,0,0,.1-.222h0a4.057,4.057,0,0,0,.218-1.044,16.167,16.167,0,0,0-1.266-6.608c-.512-.953-2.127-2.715-2.274-3.667a28.97,28.97,0,0,0-1.028-3.374,3.746,3.746,0,0,0,.623-2.778c-.218-.615-1.318-2.822-2.639-3.3a3.506,3.506,0,0,0-3.7.512c-.881.909-2.346.258-3.008.4S212.607,125.35,213.23,126.89Z" transform="translate(-128.374 -74.437)" fill="#ffb000"/>
          <path id="Path_312" data-name="Path 312" d="M230.17,128.36a3.612,3.612,0,0,0-.472,1.282c-.1.706.4.524,0,1.127s-.318,1.31,0,1.441a1.647,1.647,0,0,1,.7.421,2.093,2.093,0,0,0,1.7.135,2.937,2.937,0,0,1-.964.286c-.794.155-.706-.107-1.1-.29s-.683-.21-.794-.683a2.409,2.409,0,0,1,.183-1.349c.1-.274-.052-.794.1-1.163S230.17,128.36,230.17,128.36Z" transform="translate(-138.239 -77.415)" fill="#d18c11"/>
          <path id="Path_313" data-name="Path 313" d="M221.95,173.53a44.334,44.334,0,0,0,6.525.921,23.441,23.441,0,0,1,3.572.246h0a4.056,4.056,0,0,0,.218-1.044Z" transform="translate(-133.86 -104.658)" fill="rgba(178,116,16,0.44)" opacity="0.57"/>
          <path id="Path_314" data-name="Path 314" d="M221.28,136.87a1.5,1.5,0,0,1,.329.171c.262.194.306.679.21,1.349.536-.456,1.631-1.409,1.262-1.349A6.235,6.235,0,0,1,221.28,136.87Z" transform="translate(-133.456 -82.548)" fill="rgba(178,116,16,0.44)" opacity="0.57"/>
          <path id="Path_315" data-name="Path 315" d="M223.82,128.758a.631.631,0,0,1,.873.242S224.086,129.108,223.82,128.758Z" transform="translate(-134.988 -77.603)" fill="#042956"/>
          <path id="Path_316" data-name="Path 316" d="M212.7,127.542a.552.552,0,0,1,.591-.865c.274.079.52.2.369.373a2.993,2.993,0,0,1-.889.579,1.023,1.023,0,0,1-.071-.087Z" transform="translate(-128.211 -76.387)" fill="#042956"/>
          <path id="Path_317" data-name="Path 317" d="M226.826,143s-.441,1.52-1.552,1.794-4.921,1.377-5.378,2.655l-.187-1.484,2.028-1.381Z" transform="translate(-132.509 -86.245)" fill="rgba(178,116,16,0.44)" opacity="0.57"/>
          <path id="Path_318" data-name="Path 318" d="M226.079,139.751a3.375,3.375,0,0,1,2.33-.992s-.31,1.222-1.342,1.23c0,0,1.155,1.135.968,1.826a3.921,3.921,0,0,1-1.965-1.7,6.071,6.071,0,0,1-2.417,1.984c-1.27.4-3.632.877-4.155,1.548s-.579,1.619-.837,1.322-.849-1.341-.508-1.957a2.866,2.866,0,0,0,.452-1.695c-.075-.464-.278-1.445.222-1.56s0,.258.4.445,3.632.365,4.675-.278S225.368,139.243,226.079,139.751Z" transform="translate(-131.508 -83.679)" fill="#042956"/>
          <path id="Path_319" data-name="Path 319" d="M271.427,133.1s.587,4.064-4.723,16.642c-.468,1.115-4.064-.4-4.064-.4Z" transform="translate(-158.4 -80.274)" fill="#ea5003"/>
          <path id="Path_320" data-name="Path 320" d="M238.038,141.28l-3.247,9.017s-11.51.857-12.189.7-2.1-1.984-2.465-1.413,1.08,1.191.46,1.754-1.691-1.588-2.731-1.191-.064,3.739,1.885,4.128,17.646.683,18.654,0,3.755-9.978,3.755-9.978Z" transform="translate(-131.144 -85.207)" fill="#f3cdb0"/>
          <path id="Path_321" data-name="Path 321" d="M268.07,144.79l3.913,3.921.4-1.282Z" transform="translate(-161.675 -87.324)" fill="#f272a6"/>
          <path id="Path_322" data-name="Path 322" d="M267.33,132.561l4.9,3s4.092-7.938.659-10.371S267.33,132.561,267.33,132.561Z" transform="translate(-161.229 -75.269)" fill="#fff"/>
          <path id="Path_323" data-name="Path 323" d="M237.879,162.788h15.114a7.731,7.731,0,0,0,7.731-7.731V131.941a2.4,2.4,0,0,0-2.4-2.4h0a2.4,2.4,0,0,0-2.4,2.4v12.069a3.239,3.239,0,0,1-3.239,3.239h-3.643a5.136,5.136,0,0,0-5.132,5.152v3.572a2.941,2.941,0,0,1-2.941,2.941h-3.076a1.941,1.941,0,0,0-1.941,1.941h0A1.941,1.941,0,0,0,237.879,162.788Z" transform="translate(-142.303 -78.127)" fill="#f04d4d"/>
          <ellipse id="Ellipse_30" data-name="Ellipse 30" cx="18.142" cy="1.318" rx="18.142" ry="1.318" transform="translate(86.36 117.313)" fill="#b9d7fc" opacity="0.61"/>
          <ellipse id="Ellipse_31" data-name="Ellipse 31" cx="17.928" cy="1.754" rx="17.928" ry="1.754" transform="translate(104.716 129.609)" fill="#ffb000" opacity="0.43"/>
          <ellipse id="Ellipse_32" data-name="Ellipse 32" cx="9.021" cy="9.021" rx="9.021" ry="9.021" transform="translate(111.38 72.413)" fill="#00368b"/>
          <ellipse id="Ellipse_33" data-name="Ellipse 33" cx="3.929" cy="3.929" rx="3.929" ry="3.929" transform="translate(118.278 78.124)" fill="#042956"/>
          <path id="Path_324" data-name="Path 324" d="M303.808,305.13c-.4-.115-14.225-16.53-14.225-16.53L276.45,304.944" transform="translate(-166.729 -174.057)" fill="none" stroke="#001a49" stroke-linecap="round" stroke-miterlimit="10" stroke-width="2.93"/>
          <path id="Path_325" data-name="Path 325" d="M319.732,253.133l-10.192-1.857V209.9" transform="translate(-186.686 -126.593)" fill="none" stroke="#001a49" stroke-linecap="round" stroke-miterlimit="10" stroke-width="2.93"/>
          <line id="Line_10" data-name="Line 10" y1="1.857" x2="9.64" transform="translate(113.213 124.683)" fill="none" stroke="#001a49" stroke-linecap="round" stroke-miterlimit="10" stroke-width="2.93"/>
          <line id="Line_11" data-name="Line 11" y1="14.729" x2="8.061" transform="translate(114.793 115.166)" fill="none" stroke="#001a49" stroke-linecap="round" stroke-miterlimit="10" stroke-width="2.93"/>
          <ellipse id="Ellipse_34" data-name="Ellipse 34" cx="27.104" cy="1.838" rx="27.104" ry="1.838" transform="translate(8.398 116.793)" fill="#b9d7fc" opacity="0.61"/>
          <path id="Path_326" data-name="Path 326" d="M42.22,262.975,62.049,235.78,83.2,260.99" transform="translate(-25.463 -142.201)" fill="none" stroke="#001a49" stroke-linecap="round" stroke-miterlimit="10" stroke-width="3.76"/>
          <path id="Path_327" data-name="Path 327" d="M63.39,275.51c.4,0,11.049,1.984,11.049,1.984l12.939-1.984" transform="translate(-38.231 -166.163)" fill="none" stroke="#001a49" stroke-linecap="round" stroke-miterlimit="10" stroke-width="3.76"/>
          <line id="Line_12" data-name="Line 12" x2="0.191" y2="83.569" transform="translate(36.49 27.762)" fill="none" stroke="#001a49" stroke-linecap="round" stroke-miterlimit="10" stroke-width="3.76"/>
          <path id="Path_328" data-name="Path 328" d="M92.151,50.44l3.3,2.643-5.759,5.1L87.9,56.671l2.361-3.02,1.794-.286-1.794-1.131Z" transform="translate(-53.013 -30.421)" fill="#001a49"/>
          <path id="Path_329" data-name="Path 329" d="M48.64,42.761s.4-6.029,2.548-9.807S68.092,2.171,71.775,0c0,0-1.322,5.287-1.131,7.541,0,0-6.422,13.653-6.422,16.173,0,0-6.326,6.3-9.256,11.589C54.966,35.323,50.247,39.252,48.64,42.761Z" transform="translate(-29.335)" fill="#b9d7fc"/>
          <line id="Line_13" data-name="Line 13" x2="16.054" y2="9.557" transform="translate(28.656 20.019)" fill="#9c9c9c" stroke="#001a49" stroke-linecap="round" stroke-miterlimit="10" stroke-width="3.76"/>
          <path id="Path_330" data-name="Path 330" d="M44.181,42.761s-4.62-10.184-2.266-20.194S52.492.663,67.316,0Z" transform="translate(-24.876)" fill="#fff"/>
          <path id="Path_331" data-name="Path 331" d="M50.46,31.077s2.338,8.7,7.664,12.546L66.86,27.477s-8.732-1.671-15.7,2.35Z" transform="translate(-30.433 -16.364)" fill="#eef6ff"/>
          <path id="Path_332" data-name="Path 332" d="M68,308.2a5.936,5.936,0,0,0,2.671.512,7.664,7.664,0,0,1,3.929.079c1.242.476,6.112.206,6.457-.754.258-.722-.794-1.56-1.929-2.108a7.392,7.392,0,0,0-1.087-.429c-1.369-.4-4.088-.54-3.882-1.953L68.659,302l-.556,5.247Z" transform="translate(-41.011 -182.139)" fill="#c92b00"/>
          <path id="Path_333" data-name="Path 333" d="M68,314.16a5.935,5.935,0,0,0,2.671.512,7.664,7.664,0,0,1,3.929.079c1.242.476,6.112.206,6.457-.754.258-.722-.794-1.56-1.929-2.107-.46.4-1.191,1.147-1.147,1.615.06.683-4.763-.2-5.767-.075a30.424,30.424,0,0,1-4.12-.218Z" transform="translate(-41.011 -188.104)" fill="#a3bede"/>
          <ellipse id="Ellipse_35" data-name="Ellipse 35" cx="0.254" cy="0.254" rx="0.254" ry="0.254" transform="translate(34.964 123.807) rotate(-4.96)" fill="#a1270a"/>
          <ellipse id="Ellipse_36" data-name="Ellipse 36" cx="0.254" cy="0.254" rx="0.254" ry="0.254" transform="translate(33.198 123.271) rotate(-4.96)" fill="#a1270a"/>
          <path id="Path_334" data-name="Path 334" d="M75.033,305.921s-2.088.845-5.683-.921l5.648.691Z" transform="translate(-41.826 -183.948)" fill="#a1270a"/>
          <path id="Path_335" data-name="Path 335" d="M95.55,309.722a5.935,5.935,0,0,0,2.671.512,7.665,7.665,0,0,1,3.929.079c1.242.476,6.112.206,6.457-.754.258-.722-.794-1.56-1.929-2.107a7.389,7.389,0,0,0-1.087-.429c-1.369-.4-4.088-.54-3.882-1.953L96.2,303.53l-.556,5.247Z" transform="translate(-57.627 -183.062)" fill="#e73100"/>
          <path id="Path_336" data-name="Path 336" d="M95.55,315.68a5.936,5.936,0,0,0,2.671.512,7.664,7.664,0,0,1,3.929.079c1.242.476,6.112.206,6.457-.754.258-.722-.794-1.56-1.929-2.108-.46.4-1.191,1.147-1.147,1.615.06.683-4.763-.2-5.767-.075a30.419,30.419,0,0,1-4.12-.218Z" transform="translate(-57.627 -189.021)" fill="#b9d7fc"/>
          <ellipse id="Ellipse_37" data-name="Ellipse 37" cx="0.254" cy="0.254" rx="0.254" ry="0.254" transform="translate(45.902 124.411) rotate(-4.96)" fill="#bf2e0c"/>
          <ellipse id="Ellipse_38" data-name="Ellipse 38" cx="0.254" cy="0.254" rx="0.254" ry="0.254" transform="translate(44.136 123.872) rotate(-4.96)" fill="#bf2e0c"/>
          <path id="Path_337" data-name="Path 337" d="M102.563,307.441s-2.088.845-5.683-.921l5.648.691Z" transform="translate(-58.429 -184.865)" fill="#bf2e0c"/>
          <path id="Path_338" data-name="Path 338" d="M65.25,235.722c0,4.167,1.365,6.545,1.683,6.35a23.242,23.242,0,0,1,5.33.4c1.286.282.794-1.675.429-2.064s-.155-1.191.349-1.754.31-1.4-.314-2.183-.794-4.036-.516-7.815c.107-1.588.881-6.35,1.734-11.292h0c1.159-6.715,2.473-13.788,2.473-13.788L67.8,200.037l-.873-.357a25.489,25.489,0,0,0-.357,6.4c.349,2.572,0,9.779-.234,13.169S65.25,231.558,65.25,235.722Z" transform="translate(-39.353 -120.429)" fill="#ffb000"/>
          <path id="Path_339" data-name="Path 339" d="M70.14,201.24s4.028,5.846,5.259,6.692,1.5,9.922,1.5,9.922h0c1.159-6.715,2.473-13.788,2.473-13.788l-8.617-3.536Z" transform="translate(-42.302 -120.942)" fill="rgba(178,116,16,0.44)" opacity="0.57"/>
          <path id="Path_340" data-name="Path 340" d="M80.007,211.14a49.62,49.62,0,0,1-.949,8.759c-.814,2.989-1.746,15.26-1.746,18.963a30.086,30.086,0,0,0,.294,5.58c.175,1.175-.468.528-.294,1.7s1.349,1.635-.032,2.933" transform="translate(-46.608 -127.341)" fill="none" stroke="#b27410" stroke-miterlimit="10" stroke-width="0.22"/>
          <path id="Path_341" data-name="Path 341" d="M86.148,197.42s.5,13.212-.73,21.4-.754,15.38-.286,15.947,1.139,2.481.794,3.207,1.83,2.846.242,3.207-5.556.722-5.83,1.294a3.007,3.007,0,0,1-1.588-1.913,43.332,43.332,0,0,1-.933-11.224c.258-3.465.052-15.479-.516-18.979-.155-.949-.29-1.885-.4-2.754a7.184,7.184,0,0,0-3.85-5.437c-1.675-.845-3.37-2.127-3.445-3.858Z" transform="translate(-41.982 -119.066)" fill="#ffb000"/>
          <path id="Path_342" data-name="Path 342" d="M101.56,200.57s2.215,13.01,1.191,19.051-1.048,14.09-.472,15.9,1.4,3.322.734,4.128,1.461,2.187.246,3.81" transform="translate(-61.252 -120.966)" fill="none" stroke="#b27410" stroke-miterlimit="10" stroke-width="0.22"/>
          <path id="Path_343" data-name="Path 343" d="M105.248,201.77s2.072,4.691-1.048,7.442" transform="translate(-62.844 -121.689)" fill="none" stroke="#b27410" stroke-miterlimit="10" stroke-width="0.22"/>
          <path id="Path_344" data-name="Path 344" d="M85.935,202.524s-1.4,2.111-3.425,2.076-5.433-1.588-6.811-1.536-4.588.464-6.549-1.294Z" transform="translate(-41.705 -121.689)" fill="rgba(178,116,16,0.44)" opacity="0.57"/>
          <path id="Path_345" data-name="Path 345" d="M98.653,68.65s3.374,1.512,2.27,6.223-3.139,7.271-4.481,6.981a3.766,3.766,0,0,1-1.8-.758l-1.4,2.445L87.29,81.8l1.984-4.306.4-6.457Z" transform="translate(-52.645 -41.403)" fill="#fcb4d2"/>
          <path id="Path_346" data-name="Path 346" d="M89.829,73.861s3.068.4,4.072-.639,1.338-1.373,1.171-2.08-.278-3.235.984-3.27.893,2.715,1.449,2.778a3.572,3.572,0,0,0,2.492-1c.742-.742.6.794,1.449.036a3.093,3.093,0,0,1,2.044-.794c.671-.123,1.524.111,1.3-.6s-1.524-.706-3.124-3.27-4.163-4.683-7.878-2.75a3.614,3.614,0,0,0-3.969,2.488C88.944,67.7,87.8,71.71,89.829,73.861Z" transform="translate(-53.494 -37.109)" fill="#6478ff"/>
          <path id="Path_347" data-name="Path 347" d="M103.79,97.9s-.949-1.635-1.262-1.349.568,2.572.568,2.572Z" transform="translate(-61.795 -58.209)" fill="#f272a6" opacity="0.83"/>
          <path id="Path_348" data-name="Path 348" d="M116.392,111.6s-.337-2.338.337-3.294,3.755-1.588,4.616-1.191-.861,4.148-.861,4.148-2.27,2.822-2.778,2.623S116.392,111.6,116.392,111.6Z" transform="translate(-70.146 -64.53)" fill="#f272a6"/>
          <path id="Path_349" data-name="Path 349" d="M114.4,117.94s.29-.869.607-.667,2.655,3.655,2.485,3.969a18.728,18.728,0,0,1-1.588,1.679Z" transform="translate(-68.996 -70.71)" fill="#c9dfff"/>
          <path id="Path_350" data-name="Path 350" d="M92.327,101.861a10.4,10.4,0,0,0-3.175-2.032c-2.115-.909-3.485-1.564-3.858-.972a9.708,9.708,0,0,1-.734,1.012Z" transform="translate(-50.999 -59.485)" fill="#c9dfff"/>
          <path id="Path_351" data-name="Path 351" d="M77.5,103.452s3.016.794,3.969,2.516,1.147,20.4,1.084,24.54,0,10.962,0,10.962-3.77,2.04-6.259,1.723-4.207-1.465-6.438-1.147-7.521-.508-8.668-2.167c0,0,1.147-13.447,1.723-19.313s.583-13.212,3.759-16.316S70.43,101.7,70.43,101.7Z" transform="translate(-36.904 -61.314)" fill="#042956"/>
          <path id="Path_352" data-name="Path 352" d="M101.84,119s.56,14.812,5.243,20.158v-4.072Z" transform="translate(-61.421 -71.77)" fill="#042956" opacity="0.37"/>
          <path id="Path_353" data-name="Path 353" d="M122.935,117.912h0a.758.758,0,0,1-.746-.794l.079-3.346a.794.794,0,0,1,.794-.762h0a.758.758,0,0,1,.746.794l-.079,3.346A.794.794,0,0,1,122.935,117.912Z" transform="translate(-73.693 -68.157)" fill="#021426"/>
          <path id="Path_354" data-name="Path 354" d="M123.071,112.168h-.349a.27.27,0,0,1-.262-.278h0a.278.278,0,0,1,.278-.27h.333a.27.27,0,0,1,.262.278h0A.278.278,0,0,1,123.071,112.168Z" transform="translate(-73.856 -67.319)" fill="#021426"/>
          <path id="Path_355" data-name="Path 355" d="M127.527,117.405l-3.651-.044a1.012,1.012,0,0,1-1-1.048l.135-5.644a1.044,1.044,0,0,1,1.048-1.02l3.651.044a1.012,1.012,0,0,1,1,1.048l-.135,5.644A1.044,1.044,0,0,1,127.527,117.405Z" transform="translate(-74.109 -66.131)" fill="#042956"/>
          <path id="Path_356" data-name="Path 356" d="M128.7,106.14h-.528a.98.98,0,0,0-.984.96v.532a.953.953,0,0,0,.937.984h.528a.98.98,0,0,0,.984-.96v-.532a.953.953,0,0,0-.937-.984Z" transform="translate(-76.709 -64.014)" fill="#042956"/>
          <path id="Path_357" data-name="Path 357" d="M148.336,118.184l-5.044-.06a2.707,2.707,0,0,1-2.663-2.778h0a2.778,2.778,0,0,1,2.778-2.727l5.044.06a.373.373,0,0,1,.365.4l-.115,4.763A.4.4,0,0,1,148.336,118.184Z" transform="translate(-84.814 -67.922)" fill="#042956"/>
          <path id="Path_358" data-name="Path 358" d="M139.942,118.036l-5.052-.064.083-3.493,5.056.06Z" transform="translate(-81.353 -69.044)" fill="#042956"/>
          <path id="Path_359" data-name="Path 359" d="M159.581,118l-1.171-.016.147-6.088,1.171.016Z" transform="translate(-95.538 -67.488)" fill="#00368b"/>
          <path id="Path_360" data-name="Path 360" d="M124.74,109.813v-.353a.278.278,0,0,1,.278-.27h0a.27.27,0,0,1,.262.278v.353a.278.278,0,0,1-.278.27h0A.27.27,0,0,1,124.74,109.813Z" transform="translate(-75.232 -65.854)" fill="#042956"/>
          <path id="Path_361" data-name="Path 361" d="M128.56,124.368s1.917-1.222,1.953-2.826-.079-3.79.429-3.949.742,2.266,1.679,1.588,1.838-3.909,2.54-3.441,2.54,3.362.548,5.668a68.524,68.524,0,0,1-4.886,4.925Z" transform="translate(-77.536 -69.776)" fill="#fcb4d2"/>
          <path id="Path_362" data-name="Path 362" d="M109.662,121.111s-2.028-10.811-5.338-10.811-2.85,7.485-.853,13.05,3.969,8.787,5.481,8.577a3.247,3.247,0,0,0,2.548-2.235s.953.417,1.143-.337-.111-2.107.679-2.183,1.393-.226,1.433-1.357a5.621,5.621,0,0,1,.151-1.433,7.35,7.35,0,0,0-3.088-3.088s-1.357-.845-1.282-.179a2.056,2.056,0,0,1-.036.929S110.313,120.441,109.662,121.111Z" transform="translate(-61.459 -66.523)" fill="#042956"/>
          <path id="Path_363" data-name="Path 363" d="M126.673,136.357s-.218.23,0-.488.794-.623,1.191-.528a7.193,7.193,0,0,1,2.866,2.552c.377,1,.437.6,0,1s-.484.766-.956.552A34.951,34.951,0,0,1,126.673,136.357Z" transform="translate(-76.339 -81.586)" fill="#c9dfff"/>
        </g>
      </g>
    </g>
  </g>
</svg>
